<svg width="84" height="84" viewBox="0 0 84 84" fill="none" xmlns="http://www.w3.org/2000/svg">
<rect width="84" height="84" rx="25" fill="#F1F0FF"/>
<path d="M28.7511 30.8039C27.5762 30.9991 26.782 32.1097 26.9771 33.2846L29.804 50.3033C29.9991 51.4782 31.1098 52.2725 32.2847 52.0773C33.4596 51.8822 34.2538 50.7715 34.0587 49.5966L32.0849 37.7137L55.314 54.3253C56.2828 55.018 57.6297 54.7943 58.3225 53.8255C59.0153 52.8568 58.7916 51.5098 57.8228 50.817L34.5937 34.2055L46.4766 32.2317C47.6515 32.0366 48.4457 30.9259 48.2505 29.751C48.0554 28.5761 46.9447 27.7819 45.7699 27.9771L28.7511 30.8039Z" fill="#09244B"/>
</svg>
