<svg width="56" height="17" viewBox="0 0 56 17" fill="none" xmlns="http://www.w3.org/2000/svg">
<path d="M54.3186 11.0114C53.5242 11.484 52.7348 11.841 51.9504 12.0823C51.166 12.3237 50.4068 12.4795 49.6727 12.5499C48.9386 12.6203 48.109 12.6555 47.1838 12.6555C46.8922 12.6555 46.6408 12.5499 46.4296 12.3388C46.2084 12.1376 46.0978 11.841 46.0978 11.4488C46.0978 11.0667 46.2084 10.775 46.4296 10.5739C46.6408 10.3627 46.8922 10.2521 47.1838 10.2421C48.2699 10.2421 49.2805 10.1868 50.2157 10.0761C51.1509 9.95548 52.066 9.67391 52.961 9.23144L53.1873 8.40182C52.775 8.12025 47.1838 8.17053 45.605 7.75321C45.1525 7.60237 44.519 7.43141 43.7044 7.24035C42.1206 6.86883 42.1206 6.23393 42.1206 5.204C42.1206 4.92243 42.0905 4.45985 42.0301 3.81627L41.9849 3.28832L42.4072 2.89614C42.8899 2.45367 43.3776 2.10171 43.8704 1.84025C44.3732 1.56874 44.8307 1.37265 45.243 1.25198C45.6654 1.1313 46.1883 1.00058 46.8118 0.859791C47.6464 0.668726 48.2749 0.502802 48.6973 0.362017C48.828 0.321793 49.1448 0.201121 49.6476 0L50.1453 2.32294C49.1397 2.71513 48.1894 3.01681 47.2945 3.22799L46.9928 3.30341C46.3291 3.45425 45.7659 3.61012 45.3034 3.77101C44.8508 3.92185 44.4184 4.15314 44.0061 4.46488C44.0162 4.54533 44.0212 4.666 44.0212 4.8269C44.7654 4.98779 45.3386 5.12858 45.7408 5.24925C46.143 5.35987 46.5654 5.53585 53.2929 5.77719C53.7454 6.00848 54.2281 6.3353 54.741 6.75766L55.3292 7.24035L54.3186 11.0114Z" fill="white"/>
<path d="M40.9488 15.9589C40.0438 15.9589 39.2292 15.7779 38.5052 15.4159C37.7811 15.0539 37.218 14.546 36.8158 13.8924C36.4135 13.2488 36.2124 12.5147 36.2124 11.6901C36.2124 11.3784 36.2325 11.1069 36.2727 10.8756C36.313 10.6342 36.3683 10.3778 36.4387 10.1063C36.5191 9.7845 36.5744 9.47779 36.6046 9.18616C36.6448 8.88448 36.67 8.47721 36.68 7.96436L38.6108 8.03978C38.5907 8.98504 38.4851 9.85992 38.294 10.6644C38.2437 10.8454 38.2035 11.0214 38.1733 11.1923C38.1432 11.3532 38.1281 11.5192 38.1281 11.6901C38.1281 12.0421 38.2437 12.3588 38.475 12.6404C38.7164 12.922 39.0482 13.1432 39.4706 13.3041C39.903 13.465 40.3957 13.5455 40.9488 13.5455C41.5019 13.5455 42.0902 13.47 42.7136 13.3192C43.3371 13.1784 43.9053 12.9723 44.4181 12.7007L44.4483 12.5197C44.3779 12.5197 44.1919 12.5097 43.8902 12.4896L43.5131 12.4594C43.131 12.4292 42.7237 12.3689 42.2913 12.2784C41.8689 12.1979 41.4918 12.0924 41.16 11.9616L41.5522 9.97054C42.5779 10.1214 43.7293 10.2069 45.0064 10.227C45.3181 10.237 46.0422 10.242 47.1785 10.242V12.6555L46.3338 12.6404L46.1075 14.0885C44.5991 15.3354 42.8796 15.9589 40.9488 15.9589Z" fill="white"/>
<path d="M16.5841 12.6556C16.2925 12.6556 16.0411 12.55 15.8299 12.3389C15.6087 12.1377 15.498 11.8411 15.498 11.4489C15.498 11.0668 15.6087 10.7752 15.8299 10.574C16.0411 10.3629 16.2925 10.2522 16.5841 10.2422H17.6098C17.5495 10.0109 17.5193 9.76452 17.5193 9.50307C17.5193 8.83937 17.831 7.89913 18.4545 6.68235C18.2635 6.51139 18.0975 6.29519 17.9567 6.03373C17.826 5.76222 17.7355 5.49574 17.6852 5.23428L18.9523 4.08789C19.2339 4.39963 19.7065 4.71136 20.3702 5.0231C20.8026 5.21417 21.1697 5.39015 21.4713 5.55104C21.7831 5.70188 22.0596 5.86781 22.301 6.04882C23.035 5.4354 23.8948 5.12869 24.8803 5.12869C25.8658 5.12869 26.9569 5.40523 28.1536 5.95831L28.6815 6.19966L28.1536 9.74441C28.4653 9.92542 28.7821 10.0561 29.1039 10.1366C29.4257 10.207 29.7927 10.2422 30.205 10.2422V12.6556C28.9882 12.6556 27.8871 12.2433 26.9016 11.4187C26.0468 11.5193 25.0815 11.6953 24.0055 11.9467C23.8948 11.9668 23.7993 11.9869 23.7189 12.007C23.6485 12.0171 23.5831 12.0271 23.5228 12.0372C22.3462 12.2886 21.1847 12.4545 20.0384 12.535C18.902 12.6154 17.7506 12.6556 16.5841 12.6556ZM19.3596 9.0958C19.3596 9.38742 19.5004 9.61368 19.7819 9.77458C20.0635 9.93548 20.4758 10.0159 21.0188 10.0159C21.3808 10.0059 21.7479 9.97067 22.1199 9.91034C22.5021 9.85 22.9496 9.76452 23.4624 9.65391C24.1161 9.52318 24.4881 9.45279 24.5787 9.44273C25.3329 9.28183 25.9111 9.17625 26.3133 9.12597L26.5245 7.82874C25.9714 7.64773 25.5038 7.55722 25.1217 7.55722C24.7194 7.55722 24.3725 7.62259 24.0809 7.75332C23.7993 7.88404 23.5278 8.07008 23.2663 8.31143L22.7535 8.86954C22.2004 8.41701 21.3306 7.95946 20.1439 7.49689C19.621 8.26115 19.3596 8.79412 19.3596 9.0958Z" fill="white"/>
<path d="M9.88146 12.655C9.58984 12.655 9.33844 12.5494 9.12726 12.3382C8.90603 12.1371 8.79541 11.8404 8.79541 11.4482C8.79541 11.0661 8.90603 10.7745 9.12726 10.5734C9.33844 10.3622 9.58984 10.2516 9.88146 10.2415C10.3943 10.2415 10.8418 10.2063 11.2239 10.1359C11.6161 10.0655 11.9882 9.93984 12.3402 9.75884C12.2195 9.35659 12.134 8.89402 12.0837 8.3711C12.0435 7.83813 12.0234 7.21466 12.0234 6.50068L14.0899 6.2895C14.0799 6.53085 14.0748 6.8627 14.0748 7.28505C14.0748 8.01914 14.1352 8.59234 14.2558 9.00463C14.3765 9.40687 14.6128 9.71358 14.9648 9.92476C15.3268 10.1359 15.8648 10.2415 16.5788 10.2415V12.655C15.905 12.655 15.3168 12.5796 14.8139 12.4287C14.3111 12.2779 13.8687 12.0265 13.4866 11.6745C12.9636 12.0265 12.3804 12.2779 11.7368 12.4287C11.1033 12.5796 10.4848 12.655 9.88146 12.655ZM9.92671 2.75983C10.329 2.75983 10.8519 2.73972 11.4955 2.6995L12.1893 2.65424L12.8983 2.63916C13.3709 2.63916 13.748 2.66933 14.0296 2.72966C14.3212 2.77994 14.5776 2.88553 14.7989 3.04643C15.0302 3.19727 15.2866 3.42856 15.5682 3.7403L14.648 5.08278C14.467 4.90177 14.2609 4.77607 14.0296 4.70568C13.7983 4.63528 13.5117 4.60009 13.1698 4.60009C12.8882 4.60009 12.662 4.60512 12.491 4.61517C12.2497 4.61517 11.9932 4.63026 11.7217 4.66042C10.9977 4.70065 10.3993 4.71573 9.92671 4.70568V2.75983Z" fill="white"/>
<path d="M0 14.8265C0.351961 14.6555 0.724035 14.5047 1.11622 14.374C1.51846 14.2533 2.05646 14.1024 2.73021 13.9214C3.55481 13.6901 4.0727 13.5393 4.28387 13.4689C4.78667 13.2879 5.12355 13.1572 5.29451 13.0767C5.75708 12.8555 5.98837 12.4734 5.98837 11.9303C5.98837 11.7091 5.94815 11.4678 5.8677 11.2063L5.53585 10.075C5.33473 9.4113 5.1135 8.54648 4.87215 7.48054L7.08951 6.80176C7.22024 7.47551 7.35599 8.07887 7.49678 8.61184C7.61745 9.02414 7.74818 9.34091 7.88896 9.56214C8.02975 9.77332 8.25098 9.93924 8.55266 10.0599C8.8644 10.1806 9.30686 10.2409 9.88006 10.2409V12.6544C9.17614 12.6544 8.58283 12.5588 8.10014 12.3678C8.01969 13.2427 7.64762 13.9918 6.98392 14.6153C6.55151 15.0075 6.03362 15.3293 5.43026 15.5807C4.97774 15.7717 4.30901 15.9779 3.42408 16.1991C2.42853 16.4706 1.72964 16.6868 1.3274 16.8477L0 14.8265Z" fill="white"/>
<path d="M30.2096 12.6545C29.918 12.6545 29.6666 12.549 29.4554 12.3378C29.2342 12.1367 29.1235 11.84 29.1235 11.4478C29.1235 11.0657 29.2342 10.7741 29.4554 10.5729C29.6666 10.3618 29.918 10.2511 30.2096 10.2411C31.2554 10.2411 32.1303 10.0752 32.8342 9.74331C32.794 9.56231 32.7085 9.28074 32.5778 8.89861C32.3465 8.19469 31.8377 5.40943 31.7069 4.95691C31.5762 4.49433 31.4404 3.92616 31.2997 3.25241L33.5019 2.54346C33.6327 3.23732 33.7584 3.84069 33.879 4.35354C34.0098 4.85635 34.4985 7.65166 34.6896 8.32541C34.8605 8.95894 34.946 9.56733 34.946 10.1506C34.946 10.4623 34.9259 10.7238 34.8856 10.935C34.2823 11.5081 33.5683 11.9355 32.7437 12.2171C31.9191 12.4987 31.0744 12.6445 30.2096 12.6545ZM34.3125 14.2685V16.3803H32.0649V14.2685H34.3125Z" fill="white"/>
</svg>
