<svg width="159" height="49" viewBox="0 0 159 49" fill="none" xmlns="http://www.w3.org/2000/svg">
<path d="M155.213 32.2759C152.953 33.6201 150.708 34.6354 148.477 35.3218C146.246 36.0082 144.087 36.4515 141.999 36.6517C139.912 36.8519 137.552 36.952 134.921 36.952C134.092 36.952 133.377 36.6517 132.776 36.0511C132.147 35.4791 131.832 34.6354 131.832 33.52C131.832 32.4332 132.147 31.6038 132.776 31.0318C133.377 30.4312 134.092 30.1166 134.921 30.088C138.01 30.088 140.884 29.9307 143.544 29.6161C146.204 29.2729 148.806 28.4721 151.352 27.2137L151.995 24.8542C150.822 24.0534 134.921 24.1964 130.431 23.0095C129.144 22.5805 127.342 22.0943 125.025 21.5509C120.521 20.4943 120.521 18.6886 120.521 15.7594C120.521 14.9586 120.435 13.643 120.263 11.8126L120.135 10.3112L121.336 9.19576C122.709 7.93736 124.096 6.93637 125.497 6.19277C126.927 5.42057 128.229 4.86287 129.401 4.51967C130.602 4.17647 132.09 3.80467 133.863 3.40428C136.237 2.86088 138.024 2.38898 139.225 1.98858C139.597 1.87418 140.498 1.53098 141.928 0.958984L143.344 7.56556C140.484 8.68096 137.781 9.53896 135.236 10.1396L134.378 10.3541C132.49 10.7831 130.888 11.2264 129.573 11.6839C128.286 12.1129 127.056 12.7707 125.883 13.6573C125.912 13.8861 125.926 14.2293 125.926 14.6869C128.043 15.1445 129.673 15.5449 130.817 15.8881C131.961 16.2027 133.162 16.7032 152.295 17.3896C153.582 18.0474 154.955 18.9769 156.414 20.1781L158.087 21.5509L155.213 32.2759Z" fill="url(#paint0_linear_119_136)"/>
<path d="M117.188 46.3468C114.614 46.3468 112.298 45.832 110.239 44.8024C108.179 43.7728 106.578 42.3285 105.434 40.4696C104.29 38.6392 103.718 36.5514 103.718 34.2062C103.718 33.3196 103.775 32.5474 103.89 31.8896C104.004 31.2032 104.161 30.4739 104.361 29.7017C104.59 28.7865 104.748 27.9142 104.833 27.0848C104.948 26.2268 105.019 25.0685 105.048 23.6099L110.539 23.8244C110.482 26.5128 110.181 29.001 109.638 31.289C109.495 31.8038 109.381 32.3043 109.295 32.7905C109.209 33.2481 109.166 33.72 109.166 34.2062C109.166 35.2072 109.495 36.1081 110.153 36.9089C110.839 37.7097 111.783 38.3389 112.984 38.7965C114.214 39.2541 115.615 39.4829 117.188 39.4829C118.761 39.4829 120.435 39.2684 122.208 38.8394C123.981 38.439 125.597 37.8527 127.055 37.0805L127.141 36.5657C126.941 36.5657 126.412 36.5371 125.554 36.4799L124.481 36.3941C123.395 36.3083 122.236 36.1367 121.007 35.8793C119.805 35.6505 118.733 35.3502 117.789 34.9784L118.904 29.3156C121.822 29.7446 125.096 29.9877 128.729 30.0449C129.615 30.0735 131.674 30.0878 134.906 30.0878V36.9518L132.504 36.9089L131.86 41.0273C127.57 44.5736 122.68 46.3468 117.188 46.3468Z" fill="url(#paint1_linear_119_136)"/>
<path d="M47.8923 36.9516C47.0629 36.9516 46.3479 36.6513 45.7473 36.0507C45.1181 35.4787 44.8035 34.635 44.8035 33.5196C44.8035 32.4328 45.1181 31.6034 45.7473 31.0314C46.3479 30.4308 47.0629 30.1162 47.8923 30.0876H50.8095C50.6379 29.4298 50.5521 28.7291 50.5521 27.9855C50.5521 26.098 51.4387 23.4239 53.2119 19.9633C52.6685 19.4771 52.1966 18.8622 51.7962 18.1186C51.4244 17.3464 51.167 16.5885 51.024 15.8449L54.6276 12.5845C55.4284 13.4711 56.7726 14.3577 58.6601 15.2443C59.8899 15.7877 60.9338 16.2882 61.7918 16.7458C62.6784 17.1748 63.4649 17.6467 64.1513 18.1615C66.2391 16.4169 68.6844 15.5446 71.4872 15.5446C74.29 15.5446 77.3931 16.3311 80.7965 17.9041L82.298 18.5905L80.7965 28.6719C81.6831 29.1867 82.584 29.5585 83.4992 29.7873C84.4144 29.9875 85.4583 30.0876 86.6309 30.0876V36.9516C83.1703 36.9516 80.0386 35.779 77.2358 33.4338C74.8048 33.7198 72.0592 34.2203 68.999 34.9353C68.6844 34.9925 68.4127 35.0497 68.1839 35.1069C67.9837 35.1355 67.7978 35.1641 67.6262 35.1927C64.28 35.9077 60.9767 36.3796 57.7164 36.6084C54.4846 36.8372 51.2099 36.9516 47.8923 36.9516ZM55.7859 26.8273C55.7859 27.6567 56.1863 28.3001 56.9871 28.7577C57.7878 29.2153 58.9604 29.4441 60.5048 29.4441C61.5344 29.4155 62.5783 29.3154 63.6365 29.1438C64.7233 28.9722 65.996 28.7291 67.4546 28.4145C69.3136 28.0427 70.3718 27.8426 70.6292 27.8139C72.7742 27.3564 74.4187 27.0561 75.5627 26.9131L76.1633 23.2237C74.5903 22.7089 73.2604 22.4515 72.1736 22.4515C71.0296 22.4515 70.0429 22.6374 69.2135 23.0092C68.4127 23.381 67.6405 23.9101 66.8969 24.5965L65.4383 26.1838C63.8653 24.8968 61.3914 23.5955 58.0167 22.2799C56.5295 24.4535 55.7859 25.9693 55.7859 26.8273Z" fill="url(#paint2_linear_119_136)"/>
<path d="M28.8303 36.9513C28.0009 36.9513 27.2859 36.6509 26.6853 36.0504C26.0561 35.4784 25.7415 34.6347 25.7415 33.5193C25.7415 32.4325 26.0561 31.6031 26.6853 31.0311C27.2859 30.4305 28.0009 30.1159 28.8303 30.0873C30.2889 30.0873 31.5616 29.9872 32.6484 29.787C33.7638 29.5868 34.822 29.2293 35.823 28.7145C35.4798 27.5705 35.2367 26.2549 35.0937 24.7677C34.9793 23.2519 34.9221 21.4787 34.9221 19.4481L40.7994 18.8475C40.7708 19.5339 40.7565 20.4777 40.7565 21.6789C40.7565 23.7667 40.9281 25.3969 41.2713 26.5695C41.6145 27.7135 42.2866 28.5858 43.2876 29.1864C44.3172 29.787 45.8473 30.0873 47.8779 30.0873V36.9513C45.9617 36.9513 44.2886 36.7367 42.8586 36.3078C41.4286 35.8788 40.1702 35.1638 39.0834 34.1628C37.5962 35.1638 35.9374 35.8788 34.107 36.3078C32.3052 36.7367 30.5463 36.9513 28.8303 36.9513ZM28.959 8.80894C30.103 8.80894 31.5902 8.75174 33.4206 8.63734L35.394 8.50864L37.4103 8.46574C38.7545 8.46574 39.827 8.55154 40.6278 8.72314C41.4572 8.86614 42.1865 9.16644 42.8157 9.62404C43.4735 10.053 44.2028 10.7108 45.0036 11.5974L42.3867 15.4155C41.8719 14.9007 41.2856 14.5432 40.6278 14.343C39.97 14.1428 39.1549 14.0427 38.1825 14.0427C37.3817 14.0427 36.7382 14.057 36.252 14.0856C35.5656 14.0856 34.8363 14.1285 34.0641 14.2143C32.0049 14.3287 30.3032 14.3716 28.959 14.343V8.80894Z" fill="url(#paint3_linear_119_136)"/>
<path d="M0.727539 43.129C1.72854 42.6428 2.78673 42.2138 3.90213 41.842C5.04612 41.4988 6.57622 41.0698 8.49241 40.555C10.8376 39.8972 12.3105 39.4682 12.9111 39.268C14.3411 38.7532 15.2992 38.3814 15.7854 38.1526C17.101 37.5234 17.7588 36.4367 17.7588 34.8923C17.7588 34.2631 17.6444 33.5767 17.4156 32.8331L16.4718 29.6156C15.8998 27.728 15.2706 25.2684 14.5842 22.2368L20.8905 20.3063C21.2623 22.2225 21.6484 23.9385 22.0488 25.4543C22.392 26.6269 22.7638 27.5278 23.1642 28.157C23.5646 28.7576 24.1938 29.2295 25.0518 29.5727C25.9384 29.9159 27.1968 30.0875 28.827 30.0875V36.9515C26.825 36.9515 25.1376 36.6798 23.7648 36.1364C23.536 38.6245 22.4778 40.7552 20.5902 42.5284C19.3604 43.6438 17.8875 44.559 16.1715 45.274C14.8845 45.8174 12.9826 46.4037 10.4658 47.0329C7.63442 47.8051 5.64672 48.42 4.50273 48.8776L0.727539 43.129Z" fill="url(#paint4_linear_119_136)"/>
<path d="M86.6445 36.9507C85.8151 36.9507 85.1001 36.6504 84.4995 36.0498C83.8703 35.4778 83.5557 34.6341 83.5557 33.5188C83.5557 32.432 83.8703 31.6026 84.4995 31.0306C85.1001 30.43 85.8151 30.1154 86.6445 30.0868C89.6189 30.0868 92.1071 29.6149 94.109 28.6711C93.9946 28.1563 93.7515 27.3555 93.3797 26.2687C92.7219 24.2667 91.2748 16.3453 90.903 15.0583C90.5312 13.7427 90.1451 12.1268 89.7447 10.2106L96.0081 8.19429C96.3799 10.1677 96.7374 11.8837 97.0806 13.3423C97.4524 14.7723 98.8423 22.7223 99.3857 24.6385C99.8719 26.4403 100.115 28.1706 100.115 29.8294C100.115 30.716 100.058 31.4596 99.9434 32.0602C98.2274 33.6903 96.1968 34.9058 93.8516 35.7066C91.5065 36.5074 89.1041 36.9221 86.6445 36.9507ZM98.3132 41.541V47.547H91.9212V41.541H98.3132Z" fill="url(#paint5_linear_119_136)"/>
<defs>
<linearGradient id="paint0_linear_119_136" x1="132.133" y1="21.7792" x2="23.9817" y2="24.0698" gradientUnits="userSpaceOnUse">
<stop stop-color="#6C00FF"/>
<stop offset="1" stop-color="#9B00FF"/>
</linearGradient>
<linearGradient id="paint1_linear_119_136" x1="132.133" y1="21.7792" x2="23.9817" y2="24.0698" gradientUnits="userSpaceOnUse">
<stop stop-color="#6C00FF"/>
<stop offset="1" stop-color="#9B00FF"/>
</linearGradient>
<linearGradient id="paint2_linear_119_136" x1="132.133" y1="21.7792" x2="23.9817" y2="24.0698" gradientUnits="userSpaceOnUse">
<stop stop-color="#6C00FF"/>
<stop offset="1" stop-color="#9B00FF"/>
</linearGradient>
<linearGradient id="paint3_linear_119_136" x1="132.133" y1="21.7792" x2="23.9817" y2="24.0698" gradientUnits="userSpaceOnUse">
<stop stop-color="#6C00FF"/>
<stop offset="1" stop-color="#9B00FF"/>
</linearGradient>
<linearGradient id="paint4_linear_119_136" x1="132.133" y1="21.7792" x2="23.9817" y2="24.0698" gradientUnits="userSpaceOnUse">
<stop stop-color="#6C00FF"/>
<stop offset="1" stop-color="#9B00FF"/>
</linearGradient>
<linearGradient id="paint5_linear_119_136" x1="132.133" y1="21.7792" x2="23.9817" y2="24.0698" gradientUnits="userSpaceOnUse">
<stop stop-color="#6C00FF"/>
<stop offset="1" stop-color="#9B00FF"/>
</linearGradient>
</defs>
</svg>
